<svg xmlns="http://www.w3.org/2000/svg" width="200" height="150" xmlns:v="https://vecta.io/nano"><g stroke-width=".25" stroke-miterlimit="10"><path opacity=".1" d="M161.423 125.528c.47 2.304-1.001 4.565-3.301 5.035l-89.858 18.599c-2.287.472-4.533-1.019-5.005-3.321L38.346 24.188c-.476-2.308.999-4.564 3.294-5.038L131.499.557a4.24 4.24 0 0 1 5.011 3.318l24.913 121.653z" stroke="#b6b6b6"/><path d="M160.103 124.568c.459 2.238-.975 4.434-3.212 4.89l-87.45 18.064a4.13 4.13 0 0 1-4.869-3.225L40.326 26.138c-.463-2.241.97-4.432 3.204-4.892l87.452-18.061a4.13 4.13 0 0 1 4.876 3.226l24.245 118.157z" fill="#fff" stroke="#f4f4f4"/></g><path d="M133.773 87.489L76.211 99.165l.572 2.852 57.562-11.677-.572-2.851zm-27.874 32.601l-20.955 4.249.357 1.783 20.957-4.25-.359-1.782zm.665 3.284L85.6 127.623l.357 1.784 20.965-4.252-.358-1.781zm28.302-30.433l-57.582 11.672.573 2.855 57.582-11.674-.573-2.853zm-9.692-48.301L67.612 56.316l.574 2.854 57.558-11.676-.57-2.854zm1.096 5.452L68.689 61.766l.573 2.854 57.581-11.673-.573-2.855zm1.09 5.44L69.798 67.207l.571 2.853 57.561-11.677-.57-2.851zm1.09 5.445L70.89 72.652l.571 2.853 57.564-11.676-.575-2.852zm1.094 5.444L71.982 78.096l.572 2.851 57.564-11.676-.574-2.85zm1.094 5.452l-57.58 11.672.574 2.853 57.579-11.673-.573-2.852zm-6.557-32.677L66.52 50.874l.572 2.851 57.561-11.676-.572-2.853z" fill="#7be1e8"/><path d="M128.868 118.086l.132.015c.408.056.513.328.515.672.211-.272.465-.512.788-.58 1.123-.249 2.933-.545 4.717-.793l4.16-.417c1.061-.043 3.188.051 4.964.453 1.245.281 2.337.737 2.849 1.428a.51.51 0 0 1 .075.452c-.038.095-.097.178-.178.235v.003s-.016.009-.023.009a.51.51 0 0 1-.256.078 2.56 2.56 0 0 1-.268.03c-1.513.137-8.322.729-13.755 2.342-1.279.383-2.557.798-3.794 1.248l.013-1.044c1.151-.41 2.335-.794 3.508-1.139 4.71-1.399 10.411-2.042 12.934-2.287-.381-.16-.833-.296-1.324-.409a20.94 20.94 0 0 0-4.709-.418c-1.005.034-2.532.199-4.056.406-1.783.248-3.57.546-4.645.773-.129.028-.347.39-.515.671-.172.305-.317.556-.578.649s-.449.077-.586-.018l.008-1.348c.11-.007.169-.012.018-.032l.006-.979zm-15.733 2.443a.5.5 0 0 1-.596-.348c-.069-.257.091-.527.351-.597.469-.127 1.988-1.613 3.641-3.38 2.409-2.574 5.033-5.687 5.278-6.215.158-.344.45-.395.725-.208.213.144.274.442.133.666-.011.007-.012.03-.03.044-.026.457-.151 1.103-.312 1.905l-1.414 7.275c.585-1.516 1.188-2.741 1.639-2.835.416-.093.706.121.833.72.055.276-.002.841-.054 1.478l-.176 1.882c.081.049-.006-.337.37-1.001l.011-.013.768-1.759.438-.993c.27-.615.529-.805.855-.671.391.166.311.558.203 1.141-.153.806-.417 2.232-.163 2.705.023.028.109.013.316-.099.221-.122.699-.798 1.045-1.301.341-.49.605-.857.942-.817.162.027.28.079.346.168.177-.114.365-.187.581-.188l-.018.978c-.033.003-.072.023-.101.054.032-.001.07-.012.098-.012l-.014 1.343c-.121-.078-.206-.212-.27-.387-.054-.17-.062-.369-.055-.587-.137.258-.256.579-.323.737-.128.317-.197.517-.594.454v-.007c-.234-.034-.366-.148-.405-.339-.265.335-.526.632-.766.759-.829.455-1.34.261-1.632-.289-.125-.231-.192-.534-.207-.877l-.177.384c-.012.032-.024.065-.032.097-.731 1.29-1.273 1.61-1.699 1.371-.545-.315-.42-1.672-.317-2.811.016-.234.04-.452.056-.633-.589 1.299-1.645 4.686-2.203 6.505-.148.452-.254.823-.381 1.098-.009.024-.009.034-.011.055-.032.268-.274.461-.54.427-.326-.048-.473-.241-.417-.602.492-3.399 1.823-10.147 2.509-13.59.002-.019.006-.051.01-.058a112.46 112.46 0 0 1-4.146 4.722c-1.757 1.87-3.416 3.464-4.095 3.649zm15.653 2.735l.014-1.044c-2.117.761-4.139 1.619-5.841 2.575-2.223 1.237-3.935 2.648-4.658 4.186-.116.242-.014.532.231.649a.49.49 0 0 0 .647-.23c.63-1.345 2.188-2.61 4.253-3.757 1.56-.87 3.411-1.67 5.354-2.379z" fill="#575756"/><path d="M81.042 104.039c3.709.055 7.193 2.32 8.637 6.002a9.51 9.51 0 0 1-5.308 12.32c-1.183.47-2.412.686-3.616.656l.026-1.088c1.065.016 2.138-.177 3.195-.592 4.284-1.699 6.391-6.575 4.691-10.895-1.282-3.251-4.365-5.248-7.641-5.302l.016-1.101zm-.345 23.288c.185.055.383.097.586.097.46-.021.866-.228 1.145-.557a1.54 1.54 0 0 0 1.245.273 1.58 1.58 0 0 0 1.046-.739c.376.19.836.223 1.27.055a1.57 1.57 0 0 0 .887-.917c.416.121.873.079 1.267-.169.396-.237.637-.627.718-1.052.428.049.879-.083 1.217-.387.358-.319.532-.731.526-1.164.425-.033.841-.23 1.128-.598a1.61 1.61 0 0 0 .33-1.241c.41-.102.776-.367 1-.782a1.6 1.6 0 0 0 .091-1.28 1.61 1.61 0 0 0 .868-.944c.137-.452.081-.905-.136-1.279.361-.229.618-.612.694-1.07a1.66 1.66 0 0 0-.339-1.245 1.6 1.6 0 0 0 .476-1.178 1.58 1.58 0 0 0-.547-1.15c.247-.348.373-.804.283-1.257a1.61 1.61 0 0 0-.748-1.04c.185-.383.227-.847.052-1.279-.17-.439-.512-.743-.914-.898a1.53 1.53 0 0 0-.167-1.264c-.238-.398-.63-.659-1.053-.731.053-.429-.071-.877-.378-1.222a1.58 1.58 0 0 0-1.166-.529c-.024-.425-.229-.847-.587-1.129a1.52 1.52 0 0 0-1.236-.321c-.103-.424-.372-.8-.775-1.022-.409-.22-.872-.239-1.27-.094-.167-.399-.503-.724-.944-.874a1.57 1.57 0 0 0-1.277.137 1.48 1.48 0 0 0-1.063-.69c-.458-.071-.891.068-1.233.346-.159-.177-.36-.319-.586-.393l-.024 1.921a11.82 11.82 0 0 1 10.798 7.509c2.398 6.089-.574 12.985-6.635 15.396-1.484.588-3.015.858-4.524.837l-.025 1.924zm.087-6.584c.922.012 1.851-.151 2.756-.506a7.22 7.22 0 0 0 4.027-9.353 7.17 7.17 0 0 0-6.558-4.549l-.225 14.408zm-3.358-16.036c1.192-.465 2.416-.692 3.616-.67l-.021 1.102c-1.056-.014-2.148.167-3.183.583-4.294 1.708-6.388 6.582-4.697 10.891 1.276 3.257 4.351 5.255 7.64 5.309l-.026 1.095c-3.701-.054-7.183-2.318-8.634-5.998-1.919-4.87.457-10.386 5.305-12.312zm3.681-4.97c-.181-.059-.375-.099-.591-.095-.457.012-.877.232-1.149.557-.342-.26-.796-.369-1.24-.276a1.55 1.55 0 0 0-1.033.744c-.383-.184-.841-.227-1.28-.052a1.54 1.54 0 0 0-.887.911 1.6 1.6 0 0 0-1.265.168c-.398.247-.649.629-.723 1.065-.42-.063-.867.074-1.213.381-.338.31-.519.736-.531 1.171a1.55 1.55 0 0 0-1.125.592c-.287.361-.386.815-.319 1.245a1.58 1.58 0 0 0-1.101 2.051c-.394.171-.718.507-.864.944-.147.453-.087.909.124 1.278a1.57 1.57 0 0 0-.68 1.086 1.55 1.55 0 0 0 .343 1.23 1.56 1.56 0 0 0-.488 1.184 1.53 1.53 0 0 0 .554 1.149c-.256.353-.367.804-.277 1.253a1.57 1.57 0 0 0 .747 1.047 1.57 1.57 0 0 0-.058 1.285c.177.433.515.739.916.893-.132.412-.083.873.165 1.271a1.5 1.5 0 0 0 1.049.716 1.53 1.53 0 0 0 .39 1.226 1.57 1.57 0 0 0 1.154.539c.026.426.225.846.595 1.132.362.28.804.384 1.229.322a1.61 1.61 0 0 0 .78 1.01c.398.223.871.238 1.265.092.179.398.505.72.947.87a1.56 1.56 0 0 0 1.267-.125c.235.357.618.619 1.073.679.458.072.902-.056 1.228-.329.162.165.364.297.589.386l.022-1.928c-4.626-.063-8.983-2.897-10.791-7.499-2.403-6.097.571-12.987 6.635-15.404a11.62 11.62 0 0 1 4.521-.83l.022-1.939zm-.098 6.595a6.8 6.8 0 0 0-2.746.499c-3.686 1.468-5.488 5.645-4.03 9.348 1.105 2.788 3.744 4.518 6.551 4.562l.225-14.409z" fill="#47b3ba"/><path d="M72.511 39.827a4.17 4.17 0 0 1-.026-1.459 3.96 3.96 0 0 1 .488-1.399c.249-.433.586-.811 1.006-1.133s.927-.541 1.519-.659c.696-.14 1.335-.102 1.908.112s1.039.552 1.389 1.01l-1.193 1.251c-.122-.193-.258-.343-.41-.454a1.75 1.75 0 0 0-.472-.251c-.163-.055-.328-.084-.491-.086s-.315.012-.455.041c-.323.062-.587.189-.795.376a1.92 1.92 0 0 0-.476.656 2.58 2.58 0 0 0-.197.822c-.022.295-.003.587.053.874.06.309.165.597.315.867s.326.498.534.686a1.88 1.88 0 0 0 .705.405 1.58 1.58 0 0 0 .816.037 1.85 1.85 0 0 0 .446-.151 1.83 1.83 0 0 0 .418-.28 1.48 1.48 0 0 0 .33-.41 1.68 1.68 0 0 0 .188-.56l1.654.577a2.44 2.44 0 0 1-.358.876 3.3 3.3 0 0 1-.65.728c-.256.21-.536.389-.838.533a3.74 3.74 0 0 1-.915.308c-.543.109-1.063.092-1.558-.05s-.947-.371-1.347-.689a4.5 4.5 0 0 1-1.023-1.153 4.22 4.22 0 0 1-.565-1.425zM83.6 41.875c-.491.1-.946.105-1.362.021s-.785-.241-1.102-.463a2.84 2.84 0 0 1-.79-.842 3.31 3.31 0 0 1-.43-1.102 3.27 3.27 0 0 1-.021-1.187 2.8 2.8 0 0 1 .408-1.08 3.05 3.05 0 0 1 .842-.858c.351-.241.773-.412 1.265-.509s.944-.103 1.357-.012.781.244 1.1.469.582.503.792.84a3.2 3.2 0 0 1 .435 1.103c.08.398.088.792.023 1.184a2.88 2.88 0 0 1-.408 1.083c-.211.327-.491.612-.844.85s-.774.405-1.265.503zm-1.88-2.748c.09.458.284.799.58 1.028s.631.306 1.005.23c.183-.037.345-.105.484-.21a1.27 1.27 0 0 0 .339-.39c.087-.153.146-.334.175-.536a1.86 1.86 0 0 0-.021-.633c-.089-.457-.283-.798-.579-1.026a1.19 1.19 0 0 0-.996-.233 1.25 1.25 0 0 0-.49.214c-.142.104-.258.234-.345.389s-.146.335-.173.535a1.91 1.91 0 0 0 .021.632zm11.367.741l-1.757.352-.647-3.261c-.074-.381-.2-.647-.377-.792s-.384-.191-.618-.145c-.125.024-.246.075-.363.154s-.227.172-.321.286a2.05 2.05 0 0 0-.25.388 1.43 1.43 0 0 0-.138.453l.657 3.328-1.76.351-1.144-5.803 1.583-.316.189.973c.146-.389.393-.716.745-.982s.779-.447 1.287-.548c.372-.075.689-.068.945.024s.472.23.64.423a2.14 2.14 0 0 1 .388.663c.091.25.16.496.208.738l.733 3.714zm4.81-1.28c-.221.15-.478.301-.769.45a3.51 3.51 0 0 1-.919.322c-.219.043-.432.058-.637.042a1.4 1.4 0 0 1-.563-.164c-.17-.093-.319-.23-.442-.413s-.212-.413-.27-.692l-.597-3.028-.735.148-.266-1.338.738-.147-.365-1.845 1.759-.352.366 1.846 1.175-.235.264 1.338-1.176.235.477 2.421c.039.19.115.32.231.384a.57.57 0 0 0 .394.054 1.39 1.39 0 0 0 .384-.145c.128-.071.243-.146.343-.218l.608 1.337zm3.546-4.845a3.37 3.37 0 0 0-1.108.441c-.314.199-.526.45-.634.747l.686 3.48-1.758.352-1.148-5.801 1.617-.323.233 1.172c.127-.433.326-.788.595-1.067a1.9 1.9 0 0 1 .925-.548l.277-.044.315 1.591zm3.178 3.939c-.286.057-.562.063-.827.021a1.87 1.87 0 0 1-.708-.26c-.21-.131-.387-.299-.533-.503a1.81 1.81 0 0 1-.3-.704c-.057-.288-.046-.561.027-.822s.206-.496.393-.709.417-.397.701-.555c.281-.153.605-.269.971-.343.241-.048.481-.073.716-.079a2.28 2.28 0 0 1 .63.065l-.054-.266c-.132-.67-.582-.927-1.353-.776-.315.062-.605.176-.869.34s-.532.386-.805.661l-.736-1.002c.332-.326.689-.593 1.076-.8a4.6 4.6 0 0 1 1.272-.45c.871-.173 1.586-.102 2.143.216s.917.874 1.073 1.669l.296 1.492c.034.177.091.295.172.351s.206.077.376.058l.295 1.491c-.161.071-.312.126-.452.164l-.377.095c-.324.056-.581.039-.776-.054s-.335-.253-.425-.477l-.086-.259c-.192.381-.447.698-.768.946s-.678.41-1.072.49zm.265-1.373a1.73 1.73 0 0 0 .535-.211 1.36 1.36 0 0 0 .393-.354c.143-.167.199-.322.17-.473l-.109-.551c-.165-.027-.342-.04-.527-.037a2.89 2.89 0 0 0-.513.049c-.321.066-.571.193-.752.381a.69.69 0 0 0-.2.639c.042.212.158.371.346.475s.407.131.657.082zm8.127-.739a7.55 7.55 0 0 1-.768.452 3.43 3.43 0 0 1-.92.321c-.22.044-.434.057-.638.041s-.393-.071-.563-.163-.317-.231-.439-.412-.215-.413-.27-.692l-.598-3.029-.737.148-.264-1.338.738-.147-.367-1.846 1.761-.352.363 1.846 1.177-.236.264 1.339-1.175.233.477 2.423c.037.19.115.318.229.383s.25.082.395.055a1.25 1.25 0 0 0 .382-.147c.132-.071.247-.143.345-.216l.608 1.337z" fill="#3c3c3b"/><g fill="#7be1e8"><path d="M73.789 21.735l-15.574 3.156.358 1.784 15.574-3.157-.358-1.783zm.657 3.268l-15.574 3.155.357 1.785 15.574-3.158-.357-1.782zM50.241 30.88c-1.056.218-2.308.292-2.592-1.096-.024-.108.047-.216.154-.239s.213.05.234.157c.175.845.77 1.064 2.124.785s1.817-.72 1.643-1.566a.2.2 0 0 1 .154-.236c.108-.023.213.047.234.156.287 1.387-.893 1.818-1.951 2.039zm.8 3.899a2.76 2.76 0 0 1-2.865-1.204 2.65 2.65 0 0 1-.459.136c-1.485.308-2.946-.655-3.252-2.151-.108-.517-.064-1.053.123-1.544a2.73 2.73 0 0 1 .115-.258 2.74 2.74 0 0 1-.207-.196 2.76 2.76 0 0 1-.723-1.371c-.306-1.492.654-2.961 2.14-3.268a2.6 2.6 0 0 1 .473-.056c.193-1.12 1.051-2.017 2.159-2.246a2.76 2.76 0 0 1 2.866 1.202 2.71 2.71 0 0 1 .46-.138c1.486-.307 2.944.656 3.25 2.15.107.521.065 1.054-.123 1.547l-.114.26a2.53 2.53 0 0 1 .209.195c.366.377.615.849.721 1.368a2.77 2.77 0 0 1-2.137 3.269c-.16.035-.319.053-.478.056-.189 1.122-1.048 2.018-2.158 2.249zm-2.356-2.53c.005.062.017.124.028.187.201.982 1.162 1.616 2.139 1.413A1.82 1.82 0 0 0 52.26 31.7l-.049-.183.125-.111a1.81 1.81 0 0 0 1.153.142 1.82 1.82 0 0 0 1.402-2.15 1.81 1.81 0 0 0-1.328-1.399l-.032-.159c.554-.428.808-1.123.668-1.812-.201-.981-1.161-1.616-2.137-1.414-.393.083-.738.284-.999.587l-.159-.051-.028-.188c-.202-.982-1.163-1.617-2.14-1.414s-1.608 1.168-1.406 2.151c.012.061.029.123.047.183l-.126.11c-.358-.174-.755-.223-1.147-.143-.978.204-1.609 1.17-1.408 2.15.14.69.651 1.224 1.33 1.399l.033.161c-.547.42-.811 1.134-.671 1.811.202.982 1.162 1.617 2.14 1.413.39-.08.736-.285.999-.587l.158.053z"/><path d="M48.716 23.46c1.029-.215 2.037.451 2.249 1.485.013.065.022.131.027.197a1.89 1.89 0 0 1 1.052-.617 1.9 1.9 0 0 1 2.246 1.484 1.92 1.92 0 0 1-.705 1.903c.685.176 1.244.726 1.396 1.467a1.91 1.91 0 0 1-1.475 2.258c-.427.088-.845.027-1.207-.149l.049.195a1.91 1.91 0 0 1-1.479 2.256 1.9 1.9 0 0 1-2.245-1.484l-.031-.198a1.87 1.87 0 0 1-1.046.616 1.9 1.9 0 0 1-2.247-1.484c-.154-.743.143-1.471.702-1.904-.682-.175-1.242-.727-1.396-1.467a1.91 1.91 0 0 1 1.478-2.256c.423-.09.845-.027 1.205.148l-.049-.193a1.91 1.91 0 0 1 1.476-2.257zm-.152-.75c-1.131.236-1.943 1.162-2.099 2.246-.176 0-.357.02-.535.057a2.68 2.68 0 0 0-2.069 3.16c.104.503.346.96.698 1.327l.259.232-.145.316c-.18.478-.221.993-.12 1.496.298 1.444 1.707 2.376 3.145 2.079a2.68 2.68 0 0 0 .515-.161 2.66 2.66 0 0 0 2.81 1.227c1.13-.235 1.945-1.161 2.097-2.246.179 0 .359-.019.538-.058 1.436-.298 2.363-1.714 2.066-3.161-.102-.502-.343-.959-.697-1.325-.081-.081-.168-.159-.259-.232.056-.103.103-.209.145-.317.181-.477.222-.993.119-1.496-.296-1.443-1.706-2.375-3.143-2.078a2.71 2.71 0 0 0-.515.163 2.66 2.66 0 0 0-2.81-1.229zm-.035 5.84c-.132.026-.261-.059-.289-.192l-.248-1.206c-.027-.133.057-.264.19-.291s.261.058.287.191l.25 1.207c.027.134-.057.264-.19.291zm2.37-.493c-.131.029-.262-.058-.288-.19l-.249-1.208a.25.25 0 0 1 .189-.292c.132-.026.263.059.288.193l.25 1.207c.027.133-.058.263-.19.29z"/></g></svg>