<svg xmlns="http://www.w3.org/2000/svg" xmlns:xlink="http://www.w3.org/1999/xlink" width="200" height="150" xmlns:v="https://vecta.io/nano"><style><![CDATA[.B{opacity:.416}.C{fill:#d2d7d3}.D{stroke:#6c7a89}.E{stroke-width:.083}.F{fill:#6c7a89}]]></style><g transform="matrix(.957033 0 0 .957033 4.438545 2.16628)"><path d="M23.262 12.443h153.417v118.798H23.262z" fill="#1b4159"/><path d="M13.926 129.845c-.07 12.86 8.368 9.323 9.132 9.841h153.664c5.532-.046 9.056-1.684 9.056-9.841H13.926z" fill="#34495e"/><path d="M79.042 132.925v1.991c0 1.681 1.146 1.768 1.55 1.768h38.389c1.098.094 1.674-.519 1.674-1.408v-2.351H79.042z" fill="#67809f"/><g transform="matrix(.598787 0 0 .702949 -4178.18457 -1758.541138)"><circle r="3.5" cy="2530.362" cx="7142" transform="matrix(.949492 0 0 .949492 363.31848 126.5651)" class="F"/><circle r="3.5" cy="2530.362" cx="7142" transform="matrix(.676247 0 0 .676247 2314.8351 817.97427)" fill="#bdc3c7"/></g><path d="M28.456 25.619v4.346h142.692v-4.112c0-1.425-1.564-1.593-1.674-1.593H29.866c-1.532 0-1.386 1.28-1.41 1.359z" fill="#ecf0f1"/><path d="M38.458 25.116c.502 0 .895.378.895.831v2.371c0 .453-.393.807-.895.807h-3.985v-4.009h3.985z" class="B C D E"/><path d="M171.148 29.174v98.499H28.456V29.174z" fill="#ecf0f1"/><g class="C D E"><path d="M30.502 25.116c-.502 0-.895.378-.895.831v2.371c0 .453.393.807.895.807h3.985v-4.009h-3.985z" class="B"/><use xlink:href="#B" class="B"/></g><path d="M42.285 26.467c.106-.047.251-.084.319-.082.029.001.057-.008.065-.011s.013-.073.012-.145v-.133l.224.196.224.196-.217.202-.217.202v-.158-.158l-.078.008c-.199.018-.397.148-.476.313a.55.55 0 0 0-.013.417c.054.12.184.234.319.279.128.043.328.033.462-.024.08-.034.118-.061.185-.132.19-.2.199-.44.024-.679-.027-.037-.024-.041.047-.108l.075-.07.042.048a.89.89 0 0 1 .157.274.78.78 0 0 1-.023.436c-.042.109-.051.123-.189.251s-.148.138-.278.178a.86.86 0 0 1-.836-.152c-.22-.192-.293-.477-.193-.748.04-.108.057-.133.166-.241a.57.57 0 0 1 .209-.159z" class="F"/><use xlink:href="#B" x="5.422" class="B C D E"/><path d="M46.983 26.485v.134 1.03h-.149v.134h.149.149v-.134-1.03h1.614v1.03.134h.149.149v-.134h-.149v-1.03-.134h-.149-1.614-.149zm.867.293v.367h-.379v.147h.379v.367h.163v-.367h.407v-.147h-.407v-.367h-.163z" class="F"/><path d="M68.224 25.116c-.502 0-.894.378-.895.831v2.371c0 .453.393.807.895.807h.407 63.009.407c.502 0 .895-.354.895-.807v-2.371c0-.453-.393-.831-.895-.831h-.407-63.009z" class="B C D E"/><path d="M170.535 29.965v96.774H29.069V29.965z" fill="#fff"/><path d="M47.358 62.593h22.994v61.524H47.358z" fill="#8de8ee"/><path d="M72.855 62.593h81.01v61.154h-81.01z" fill="#7be1e8"/><path d="M75.406 55.199l.771-.771h0a13.1 13.1 0 0 1 1.541-1.541l.514-.428c.05-.044.08-.105.086-.171l-.599.342s-.086 0 0-.086l.428-.342h-.086a1.71 1.71 0 0 0-1.455.685h-.171c-.685.257-1.199.856-1.884 1.113h0l-.856.342c-.37.043-.743.043-1.113 0l-1.712.342h0l-.856.342h-.086c0 .023-.009.044-.025.061s-.038.025-.061.025l-.257.257a6.08 6.08 0 0 0-.771.599h-.086l-.771.771h-.086c.086 0 .086-.086.171-.171.005-.066.036-.127.086-.171.088-.096.148-.214.171-.342h0l.771-.514h0c-.023 0-.044-.009-.061-.025s-.025-.038-.025-.061h-.171c-.086.171-.171.342-.342.342h0c0-.023.009-.044.025-.061s.038-.025.061-.025h0l.342-.257h0l.514-.342h.086l-.771.342h-.086s0 .086-.086 0h0l.257-.257h.086c1.455-1.113 3.51-.856 5.223-1.455l.428-.257c.171-.086.342-.342.685-.428a2.57 2.57 0 0 0 .771-1.113h-.086c-.63.244-1.295.389-1.969.428a7.79 7.79 0 0 1-3.082.514h.257c0-.086.086-.171.171-.257h.171c0-.023.009-.044.025-.061s.038-.025.061-.025h.171c-.171-.171-.428.171-.685 0s.086-.171.171-.257h.171c.005-.066.036-.127.086-.171l1.969-1.113c.599-.428-.171.171-.342.086s0-.171.086-.171c.5-.163.986-.363 1.455-.599-.171 0-.342.171-.514 0h.257v-.171c0-.023.009-.044.025-.061s.038-.025.061-.025h-.086l.257-.171h-.086c.144-.181.369-.278.599-.257-.086-.086-.257 0-.257-.086s.086-.086.171-.086h-.171c-.047 0-.086-.038-.086-.086s.038-.086.086-.086c.18-.356.323-.729.428-1.113h-.086a4.88 4.88 0 0 1-1.884.942h-.257c-.256.096-.542.064-.771-.086l-.428-.342-1.199-.599c-1.12-.461-2.304-.75-3.51-.856a8.99 8.99 0 0 1 1.627-.428 5.31 5.31 0 0 1 2.312-.428c-.171-.086-.342 0-.428 0-.667-.041-1.335.046-1.969.257l-1.37.342c-.257.086-.428.428-.685.342v-.171c.399-.585 1.016-.985 1.712-1.113a7.45 7.45 0 0 1 2.397.086l1.798.342c.171 0 .257.342.428.428s.514 0 .856.171-.086-.171 0-.257.342 0 .599-.086-.342-.599-.514-.942h0a5.48 5.48 0 0 0 1.113.856c.257.171.771.257.685 0-.293-.491-.638-.951-1.027-1.37v-.171h-.171v-.428c-.171-.086-.086-.257-.257-.342s0-.599-.086-.856c-.098-.246-.156-.506-.171-.771-.184-.733-.327-1.477-.428-2.226-.086-.856.514-1.541.942-2.312.255-.614.707-1.126 1.284-1.455a3.17 3.17 0 0 1 .856-1.455c.352-.444.829-.772 1.37-.942l1.284-.514h9.161l.171.171.685.342a2.31 2.31 0 0 1 .856.685c.086.171.257.428.171.599s-.171.599-.342.685a2.14 2.14 0 0 1-1.027.171l-.514-.171c.712.243 1.337.69 1.798 1.284l.428.171h0c-.086.086-.171.171-.086.257h.086c.257-.086.171-.514.514-.342a.43.43 0 0 1 .171.685l-.514.428c-.087.097-.087.245 0 .342l.257.514.257 1.027c.239.658.355 1.355.342 2.055 0 .342-.171.685-.086 1.027a11.47 11.47 0 0 0 .514 1.027 1.8 1.8 0 0 1 .514.685c.257.428.771.942.599 1.455s-.685.257-1.027.514 0 .599.171.771-.342.685-.599.856.257.086.257.171.342.342.171.599-.771.428-.428.856 0 .685-.086.942c-.145.363-.47.623-.856.685-.259.152-.572.184-.856.086h-.257a21.49 21.49 0 0 0-2.312-.342l-.685.171-.514.514h-.257l-.342.514h0c0 .086 0 .086-.086.086l-.342.856c-.257 1.027-.171 1.969.086 2.14s1.541.514 2.483 1.027l1.113.514H70.098a32.19 32.19 0 0 1 2.997-1.541c.843-.321 1.625-.784 2.312-1.37m-7.02-3.253c-.086 0-.257.086-.257 0s.342-.257.599-.342.171-.171.257-.086l.342.171c-.257.257-.599.171-.942.257m-7.02-1.027h-.086c.591-.716 1.108-1.491 1.541-2.312a10.19 10.19 0 0 0 1.541-1.113c.714-.846 1.586-1.544 2.568-2.055a1.97 1.97 0 0 1 1.199.086c-.171.171-.428.171-.599.257h-.086v-.171c-.428.514-1.113.771-1.455 1.37s-.428 1.027-1.027 1.113 0-.086-.086-.086c-1.288.918-2.465 1.981-3.51 3.168m3.767-2.997c0 .086-.086.086-.086.171s-.086.171-.171.171h-.086c0-.171.171-.428.342-.428h0m2.14 6.849c0 .086-.086.086-.086.171s.086 0 .086.086l-.342.171c-.023 0-.044.009-.061.025s-.025.038-.025.061h-.171c-.086.086-.342.086-.257 0l.342-.342c.086-.086.171-.086.171-.171h.342m-.771-.342h0l-.599.342-.599.257h-.086l-.428.342h-.257c0 .023-.009.044-.025.061s-.038.025-.061.025h-.086c0 .086 0 .086-.086.086h-.086c-.086.086-.171.086-.171.171l-.257.257h-.257l.171-.171h.171c0-.045.018-.089.05-.121s.076-.05.121-.05h0c0-.023.009-.044.025-.061s.038-.025.061-.025h0c.086-.086.086-.086.086-.171h0c.086-.086.171-.171.171-.257h0l-.171.171c-.023 0-.044-.009-.061-.025s-.025-.038-.025-.061c.023 0 .044-.009.061-.025s.025-.038.025-.061h.086l.171-.257h.171V54.6h0c.514-.428 1.199-.342 1.798-.685s.514.086.685 0h.428l-1.113.771m.942-3.168c-.086-.086.086 0 .171-.171h-.342l-.771.257-.942.342c-.467.29-.953.547-1.455.771-.086 0-.086 0-.086-.086l.342-.257h0a5.65 5.65 0 0 1 1.284-1.199v-.171a2.91 2.91 0 0 0 .514-.514c.068-.201.227-.36.428-.428h-.171c-.171 0-.342.086-.514-.086l.257-.171h-.086c-.086-.171.086-.257.257-.257l.514-.171c-.342-.086-.685.086-1.027-.086.204-.596.635-1.089 1.199-1.37h.086c0 .257-.086.428-.342.428l1.113.342c0 .047-.038.086-.086.086s-.086-.038-.086-.086c.171.171.514.086.685.257s-.257 0-.342 0c1.37.428 2.911.685 4.11 1.627a10.36 10.36 0 0 1-3.168.428h-.428c-.171 0-.342 0-.428.171h-.599" fill="#fff"/><path d="M75.406 55.199l.771-.771h0a13.1 13.1 0 0 1 1.541-1.541l.514-.428c.05-.044.08-.105.086-.171l-.599.342s-.086 0 0-.086l.428-.342h-.086a1.71 1.71 0 0 0-1.455.685h-.171c-.685.257-1.199.856-1.884 1.113h0l-.856.342c-.37.043-.743.043-1.113 0l-1.712.342h0l-.856.342h-.086c0 .023-.009.044-.025.061s-.038.025-.061.025l-.257.257-.771.599c-.023 0-.044.009-.061.025s-.025.038-.025.061l-.771.685h-.086c.086 0 .086-.086.171-.171.005-.066.036-.127.086-.171.088-.096.148-.214.171-.342h0l.771-.514h0c-.023 0-.044-.009-.061-.025s-.025-.038-.025-.061h-.171c-.086.171-.171.342-.342.342h0c0-.023.009-.044.025-.061s.038-.025.061-.025h0l.342-.257h0l.514-.342h.086l-.771.342h-.086s0 .086-.086 0h0l.257-.257h.086c1.455-1.113 3.51-.856 5.223-1.455l.428-.257c.171-.086.342-.342.685-.428a2.57 2.57 0 0 0 .771-1.113h-.086c-.63.244-1.295.389-1.969.428a7.79 7.79 0 0 1-3.082.514h.257c0-.086.086-.171.171-.257h.171c0-.023.009-.044.025-.061s.038-.025.061-.025h.171c-.171-.171-.428.171-.685 0s.086-.171.171-.257h.171c.005-.066.036-.127.086-.171l1.969-1.113c.599-.428-.171.171-.342.086s0-.171.086-.171c.5-.163.986-.363 1.455-.599-.171 0-.342.171-.514 0h.257v-.171c0-.023.009-.044.025-.061s.038-.025.061-.025h-.086l.257-.171h-.086c.144-.181.369-.278.599-.257-.086-.086-.257 0-.257-.086s.086-.086.171-.086h-.171c-.047 0-.086-.038-.086-.086s.038-.086.086-.086c.18-.356.323-.729.428-1.113h-.086a4.88 4.88 0 0 1-1.884.942h-.257c-.256.096-.542.064-.771-.086l-.428-.342-1.199-.599c-1.12-.461-2.304-.75-3.51-.856a8.99 8.99 0 0 1 1.627-.428 5.31 5.31 0 0 1 2.312-.428c-.171-.086-.342 0-.428 0-.667-.041-1.335.046-1.969.257l-1.37.342c-.257.086-.428.428-.685.342v-.171c.399-.585 1.016-.985 1.712-1.113a7.45 7.45 0 0 1 2.397.086l1.798.342c.171 0 .257.342.428.428s.514 0 .856.171-.086-.171 0-.257.342 0 .599-.086-.342-.599-.514-.942h0c.428.257.685.685 1.113.856s.771.257.685 0c-.293-.491-.638-.951-1.027-1.37v-.171h-.171v-.428c-.171-.086-.086-.257-.171-.342s-.086-.599-.171-.856c-.098-.246-.156-.506-.171-.771-.184-.733-.327-1.477-.428-2.226-.086-.856.514-1.541.942-2.312.255-.614.707-1.126 1.284-1.455a3.17 3.17 0 0 1 .856-1.455c.352-.444.829-.772 1.37-.942l1.284-.514H47.838V58.11h22.26a32.19 32.19 0 0 1 2.997-1.541c.843-.321 1.625-.784 2.312-1.37m-7.02-3.253c-.086 0-.257.086-.257 0s.342-.257.599-.342.171-.171.257-.086l.342.171c-.257.257-.599.171-.942.257m-7.02-1.027h-.086c.591-.716 1.108-1.491 1.541-2.312a7.19 7.19 0 0 0 1.541-1.37c.714-.846 1.586-1.544 2.568-2.055a1.97 1.97 0 0 1 1.199.086c-.171.171-.428.171-.599.257h-.086v-.171c-.428.514-1.113.771-1.455 1.37s-.428 1.027-1.027 1.113 0-.086-.086-.086c-1.288.918-2.465 1.981-3.51 3.168m3.767-2.997c0 .086-.086.086-.086.171s-.086.171-.171.171h-.086c0-.171.171-.428.342-.428h0m2.14 6.849c0 .086-.086.086-.086.171s.086 0 .086.086l-.342.171h-.257c-.086.086-.342.086-.257 0l.342-.342c.086-.086.171-.086.171-.171.023 0 .044-.009.061-.025s.025-.038.025-.061h.257m-.771-.342h0l-.599.342-.599.257h-.086l-.428.342h-.257c0 .023-.009.044-.025.061s-.038.025-.061.025h-.086c0 .086 0 .086-.086.086h-.086c-.086.086-.171.086-.171.171l-.257.257h-.257l.171-.171h.171c0-.045.018-.089.05-.121s.076-.05.121-.05h0c0-.023.009-.044.025-.061s.038-.025.061-.025h0c.086-.086.086-.086.086-.171h0c.086-.086.171-.171.171-.257h0l-.171.171c-.023 0-.044-.009-.061-.025s-.025-.038-.025-.061c.023 0 .044-.009.061-.025s.025-.038.025-.061h.086l.171-.257h.171v-.171h0c.514-.428 1.199-.342 1.798-.685s.514.086.685 0h.428l-1.113.771m.942-3.168c-.086-.086.086 0 .171-.171h-.342l-.771.257-.942.342c-.467.29-.953.547-1.455.771-.086 0-.086 0-.086-.086l.342-.257h0a5.65 5.65 0 0 1 1.284-1.199v-.171a2.91 2.91 0 0 0 .514-.514c.068-.201.227-.36.428-.428h-.171c-.171 0-.342.086-.514-.086l.257-.171h-.086c-.086-.171.086-.257.257-.257l.514-.171c-.342-.086-.685.086-1.027-.086.204-.596.635-1.089 1.199-1.37h.086c0 .257-.086.428-.342.428l1.113.342c0 .047-.038.086-.086.086s-.086-.038-.086-.086c.171.171.514.086.685.257s-.257 0-.342 0c1.37.428 2.911.685 4.11 1.627a10.36 10.36 0 0 1-3.168.599h-.428c-.171 0-.342 0-.428.171h-.599" fill="#000091"/><path d="M114.532 33.795H88.505l.171.171.685.342a2.31 2.31 0 0 1 .856.685c.086.171.257.428.171.599s-.171.599-.342.685a2.14 2.14 0 0 1-1.027.171l-.514-.171c.712.243 1.337.69 1.798 1.284l.428.171h0c-.086.086-.171.171-.086.257h.086c.257-.086.171-.514.514-.342a.43.43 0 0 1 .171.685l-.514.428c-.087.097-.087.245 0 .342l.257.514.257 1.027c.239.658.355 1.355.342 2.055 0 .342-.171.685 0 1.027a3.68 3.68 0 0 0 .428 1.027 1.8 1.8 0 0 1 .514.685c.342.428.771.942.599 1.455s-.685.257-1.027.514 0 .599.171.771-.342.685-.599.856.257.086.257.171.342.342.171.599-.771.428-.428.856 0 .685-.086.942c-.145.363-.47.623-.856.685-.259.152-.572.184-.856.086h-.257a21.49 21.49 0 0 0-2.312-.342l-.685.171-.514.514h-.257l-.342.514h0c0 .086 0 .086-.086.086l-.342.856c-.257 1.027-.171 1.969.086 2.14s1.541.514 2.483 1.027l1.113.514h25.599z" fill="#e1000f"/><path d="M90.046 42.699h.428c-.086.428-.599.514-.942.856h-.086c-.171.086-.086.342-.257.342h-.428a.77.77 0 0 0 .685.342l.171.171h.171v.257c-.171.171-.342.086-.514.171h1.027c.257-.171 0-.599.171-.856s0-.086-.086-.086.171-.257.257-.257.257-.086.257-.171-.171-.171-.086-.257.514-.428.428-.685-.428-.171-.685-.257a1.2 1.2 0 0 0-.771.086l-.685.171-.856.428c.328-.136.674-.222 1.027-.257a2.31 2.31 0 0 1 .771 0" fill="#9c9b9b"/></g><defs ><path id="B" d="M41.236 25.116c-.502 0-.894.378-.895.831v2.371c0 .453.393.807.895.807h.407 1.979.407c.502 0 .895-.354.895-.807v-2.371c0-.453-.393-.831-.895-.831h-.407-1.979-.407z"/></defs></svg>