<svg xmlns="http://www.w3.org/2000/svg" xmlns:xlink="http://www.w3.org/1999/xlink" width="200" height="150" xmlns:v="https://vecta.io/nano"><path d="M159.12 24.591a8.96 8.96 0 0 0-7.607-10.294L72.023 2.379c-5.011-.753-9.541 2.596-10.293 7.608L44.55 124.565l112.209-84.22 2.361-15.753z" fill="#7be1e8"/><path d="M44.552 124.564l-.27 1.791c-.749 5.014 2.598 9.544 7.612 10.295l79.843 11.969c5.014.754 9.54-2.593 10.295-7.608l15.086-100.612-112.566 84.165z" fill="#aaf4f9"/><path d="M155.526 48.58l3.649-24.347c.753-5.012-2.597-9.542-7.611-10.296L72.08 2.021c-5.014-.753-9.543 2.594-10.295 7.609l-3.65 24.348" fill="#61c0c6"/><path d="M139.251 25.272L69.788 14.857l-2.469 16.468 11.815 1.774 68.389 10.253 2.468-16.471-10.74-1.609z" fill="#e0f9fb"/><g opacity=".1" transform="matrix(1.860249 .809907 -.809907 1.860249 73.337807 -22.775812)"><path d="M44.41 7.36l-5.171 1.386L13.612 24.11l32.922-8.821L44.41 7.36z"/></g><path d="M102.602 23.072l-2.505-.375-1.504 10.023 2.506.379 1.502-10.027zm8.272 3.437l-.86 5.73-2.505-.375.861-5.73 2.505.375zm2.471-1.824l-6.805-1.022-1.503 10.025 6.803 1.021 1.505-10.025zm7.913 3.381l-.858 5.729-2.148-.323.859-5.728 2.147.323zm2.47-1.827l-6.802-1.021-1.504 10.028 6.804 1.018 1.502-10.025zM132 29.677l-.858 5.729-2.505-.375.859-5.731 2.505.377zm2.469-1.825l-6.801-1.021-1.504 10.026 6.803 1.018 1.502-10.024zm7.913 3.382l-.86 5.73-2.507-.377.861-5.73 2.506.377zm2.828-1.774l-6.803-1.018-1.502 10.024 6.802 1.021 1.503-10.026z" fill="#35959b"/><g opacity=".1" transform="matrix(1.860249 .809907 -.809907 1.860249 73.337807 -22.775812)" fill="#1d1d1b"><path d="M19.859 37.77l-5.171 1.386a1.98 1.98 0 0 1-2.404-1.388l-.323-1.207a1.98 1.98 0 0 1 1.388-2.404l5.171-1.386a1.98 1.98 0 0 1 2.404 1.388l.369 1.379c.277 1.034-.4 1.955-1.434 2.232zm13.962-3.741l-5.171 1.386a1.98 1.98 0 0 1-2.404-1.388l-.323-1.207a1.98 1.98 0 0 1 1.388-2.404l5.171-1.386a1.98 1.98 0 0 1 2.404 1.388l.37 1.379c.277 1.034-.4 1.955-1.434 2.232zm13.617-3.648l-5.171 1.385a1.98 1.98 0 0 1-2.404-1.388l-.323-1.207a1.98 1.98 0 0 1 1.388-2.404l5.171-1.386a1.98 1.98 0 0 1 2.404 1.388l.369 1.379c.277 1.034-.4 1.955-1.434 2.232z"/><use xlink:href="#B"/><use xlink:href="#B" x="13.962" y="-3.741"/><use xlink:href="#B" x="27.579" y="-7.39"/><path d="M24.709 55.869l-5.171 1.386a1.98 1.98 0 0 1-2.404-1.388l-.323-1.207a1.98 1.98 0 0 1 1.388-2.404l5.171-1.386a1.98 1.98 0 0 1 2.404 1.388l.323 1.207c.323 1.207-.354 2.127-1.388 2.404zm13.961-3.741l-5.171 1.386a1.98 1.98 0 0 1-2.404-1.388l-.323-1.207a1.98 1.98 0 0 1 1.388-2.404l5.171-1.386a1.98 1.98 0 0 1 2.404 1.388l.323 1.207c.323 1.206-.354 2.127-1.388 2.404z"/><use xlink:href="#B" x="4.849" y="18.098"/><use xlink:href="#B" x="18.811" y="14.357"/><path d="M50.822 43.699l-4.826 1.293c-1.034.277-1.837 1.416-1.514 2.623l1.663 6.205.231.862.785 2.93c.277 1.034 1.416 1.837 2.623 1.514l4.826-1.293c1.034-.277 1.837-1.416 1.514-2.623l-.785-2.93-.231-.862-1.663-6.205c-.323-1.206-1.589-1.791-2.623-1.514z"/></g><path d="M79.958 61.78l-10.74-1.611c-2.148-.322-3.672-2.383-3.348-4.53l.373-2.505a4.02 4.02 0 0 1 4.53-3.348l10.741 1.61c2.15.323 3.671 2.381 3.35 4.53l-.377 2.507c-.323 2.149-2.38 3.669-4.53 3.348zm29.005 4.347l-10.744-1.611a4.02 4.02 0 0 1-3.347-4.529l.376-2.507a4.02 4.02 0 0 1 4.528-3.347l10.742 1.609c2.148.323 3.67 2.382 3.348 4.529l-.375 2.507a4.02 4.02 0 0 1-4.528 3.349zm28.285 4.241l-10.741-1.61a4.02 4.02 0 0 1-3.347-4.529l.376-2.506c.32-2.149 2.378-3.672 4.528-3.348l10.742 1.61c2.149.32 3.67 2.379 3.347 4.53l-.376 2.504a4.02 4.02 0 0 1-4.528 3.349zM77.167 80.397l-10.742-1.611a4.02 4.02 0 0 1-3.346-4.527l.376-2.51a4.02 4.02 0 0 1 4.53-3.347l10.741 1.613a4.02 4.02 0 0 1 3.347 4.527l-.375 2.507c-.324 2.147-2.382 3.67-4.531 3.348zm29.005 4.35l-10.744-1.612c-2.149-.324-3.669-2.38-3.348-4.53l.376-2.504a4.02 4.02 0 0 1 4.527-3.349l10.742 1.61a4.02 4.02 0 0 1 3.347 4.528l-.372 2.509c-.323 2.147-2.38 3.669-4.528 3.348zm28.283 4.24l-10.739-1.61c-2.148-.324-3.672-2.381-3.351-4.528l.377-2.507c.324-2.149 2.383-3.671 4.531-3.35l10.74 1.612a4.02 4.02 0 0 1 3.349 4.528l-.377 2.507a4.02 4.02 0 0 1-4.53 3.347zM74.322 99.376l-10.739-1.612a4.02 4.02 0 0 1-3.349-4.53l.374-2.506a4.02 4.02 0 0 1 4.529-3.348l10.74 1.611a4.02 4.02 0 0 1 3.349 4.528l-.375 2.509a4.02 4.02 0 0 1-4.529 3.347zm29.002 4.347l-10.74-1.612c-2.149-.319-3.672-2.378-3.348-4.528l.374-2.506c.322-2.148 2.383-3.669 4.53-3.347l10.742 1.61a4.02 4.02 0 0 1 3.347 4.529l-.378 2.506a4.02 4.02 0 0 1-4.528 3.349zm-31.793 14.27l-10.742-1.61c-2.147-.322-3.668-2.381-3.347-4.53l.375-2.507c.323-2.149 2.382-3.67 4.529-3.348l10.742 1.612c2.148.321 3.668 2.38 3.349 4.528l-.377 2.506a4.02 4.02 0 0 1-4.529 3.348zm29.003 4.349l-10.743-1.611a4.02 4.02 0 0 1-3.347-4.529l.374-2.506a4.02 4.02 0 0 1 4.53-3.347l10.743 1.609a4.02 4.02 0 0 1 3.346 4.529l-.375 2.505a4.02 4.02 0 0 1-4.527 3.349zm32.275-24.815l-10.026-1.502c-2.148-.324-4.566 1.146-4.941 3.65l-1.932 12.89-.268 1.79-.915 6.088c-.32 2.149 1.147 4.565 3.654 4.94l10.025 1.505c2.148.322 4.566-1.147 4.941-3.654l.913-6.087.269-1.79 1.934-12.889c.376-2.507-1.505-4.621-3.653-4.942z" fill="#35a9b0"/><path d="M131.091 108.985l-10.022-1.505-.379 2.508 10.026 1.505.376-2.509zm-.751 5.013l-10.025-1.504-.376 2.505 10.027 1.505.374-2.506z" fill="#fff"/><defs ><path id="B" d="M22.307 46.906l-5.171 1.386a1.98 1.98 0 0 1-2.404-1.388l-.323-1.207a1.98 1.98 0 0 1 1.388-2.404l5.171-1.386a1.98 1.98 0 0 1 2.404 1.388l.323 1.207a1.98 1.98 0 0 1-1.388 2.404z"/></defs></svg>